<svg xmlns="http://www.w3.org/2000/svg" xmlns:xlink="http://www.w3.org/1999/xlink" width="500" zoomAndPan="magnify" viewBox="0 0 375 374.999991" height="500" preserveAspectRatio="xMidYMid meet" version="1.0"><path fill="#ffffff" d="M 110.261719 0 C 49.738281 0 0 49.671875 0 110.261719 L 0 264.738281 C 0 325.261719 49.671875 375 110.261719 375 L 264.738281 375 C 325.261719 375 375 325.328125 375 264.738281 L 375 110.261719 C 375 49.738281 325.328125 0 264.738281 0 Z M 110.261719 34.089844 L 264.738281 34.089844 C 306.882812 34.089844 340.910156 68.117188 340.910156 110.261719 L 340.910156 264.738281 C 340.910156 306.882812 306.882812 340.910156 264.738281 340.910156 L 110.261719 340.910156 C 68.117188 340.910156 34.089844 306.882812 34.089844 264.738281 L 34.089844 110.261719 C 34.089844 68.117188 68.117188 34.089844 110.261719 34.089844 Z M 288.175781 71.378906 C 279.585938 71.378906 272.726562 78.234375 272.726562 86.824219 C 272.726562 95.414062 279.585938 102.273438 288.175781 102.273438 C 296.765625 102.273438 303.621094 95.414062 303.621094 86.824219 C 303.621094 78.234375 296.765625 71.378906 288.175781 71.378906 Z M 187.5 85.226562 C 131.238281 85.226562 85.226562 131.238281 85.226562 187.5 C 85.226562 243.761719 131.238281 289.773438 187.5 289.773438 C 243.761719 289.773438 289.773438 243.761719 289.773438 187.5 C 289.773438 131.238281 243.761719 85.226562 187.5 85.226562 Z M 187.5 119.316406 C 225.386719 119.316406 255.683594 149.613281 255.683594 187.5 C 255.683594 225.386719 225.386719 255.683594 187.5 255.683594 C 149.613281 255.683594 119.316406 225.386719 119.316406 187.5 C 119.316406 149.613281 149.613281 119.316406 187.5 119.316406 Z M 187.5 119.316406 " fill-opacity="1" fill-rule="nonzero"/></svg>