<svg xmlns="http://www.w3.org/2000/svg" xmlns:xlink="http://www.w3.org/1999/xlink" width="500" zoomAndPan="magnify" viewBox="0 0 375 374.999991" height="500" preserveAspectRatio="xMidYMid meet" version="1.0"><defs><clipPath id="3d0d6ea136"><path d="M 0 0 L 375 0 L 375 373.5 L 0 373.5 Z M 0 0 " clip-rule="nonzero"/></clipPath></defs><g clip-path="url(#3d0d6ea136)"><path fill="#ffffff" d="M 187.582031 0.125 C 83.964844 0.125 0 84.089844 0 187.707031 C 0 280.765625 67.886719 358.074219 156.722656 372.691406 L 156.722656 245.523438 L 108.976562 245.523438 L 108.976562 189.820312 L 156.722656 189.820312 L 156.722656 149.378906 C 156.722656 105.527344 192.292969 75.808594 236.140625 75.808594 C 255.628906 75.808594 267.8125 78.730469 267.8125 78.730469 L 267.8125 125.503906 L 236.140625 125.503906 C 222.984375 125.503906 212.265625 136.222656 212.265625 149.378906 L 212.265625 189.820312 L 263.425781 189.820312 L 256.28125 245.523438 L 212.265625 245.523438 L 212.265625 373.503906 C 304.027344 361.320312 374.835938 282.714844 374.835938 187.707031 C 375 84.089844 291.035156 0.125 187.582031 0.125 Z M 187.582031 0.125 " fill-opacity="1" fill-rule="nonzero"/></g></svg>